<svg xmlns="http://www.w3.org/2000/svg" viewBox="0 0 109.666 76.08">
  <defs>
    <style>
      .cls-1 {
        fill: #fff;
        stroke: #000;
        stroke-miterlimit: 10;
      }
    </style>
  </defs>
  <g id="ar-logoAsset_1" data-name="ar-logoAsset 1" transform="translate(-0.003 0)">
    <g id="Trace" transform="translate(0.51 0.54)">
      <path id="Path_24" data-name="Path 24" class="cls-1" d="M56.71,69.861,26.734,75.477V45.5L56.71,39.885ZM24.864,45.5,14.557,35.2q-.466,14.059-.932,28.1L24.864,74.539ZM12.687,32.386,1.424,21.147Q.982,35.2.51,49.26L11.749,60.492ZM32.356,13.655,2.38,19.277,13.625,30.516l29.97-5.622ZM64.239,7.094,34.232,12.717,45.471,23.956l29.976-5.616ZM96.993.54,67.029,6.162,78.255,17.377l29.976-5.622ZM44.533,26.77,14.557,32.386,25.8,43.631l29.976-5.622ZM109.17,13.655,79.193,19.277V49.26l29.976-5.616ZM76.385,20.209,47.347,25.832,59.524,38.009V53l16.861-2.814Z" transform="translate(-0.51 -0.54)"/>
    </g>
  </g>
</svg>
