<svg id="github-sign" xmlns="http://www.w3.org/2000/svg" viewBox="0 0 36 36">
  <defs>
    <style>
      .cls-1 {
        fill: #1b2f33;
      }
    </style>
  </defs>
  <g id="Group_1" data-name="Group 1">
    <path id="Path_2" data-name="Path 2" class="cls-1" d="M154.444,352.518q-.375.07-.328.351t.422.187q.375-.094.328-.328Q154.819,352.471,154.444,352.518Z" transform="translate(-141.459 -323.572)"/>
    <path id="Path_3" data-name="Path 3" class="cls-1" d="M137.705,354.815c-.25,0-.375.085-.375.258q0,.3.4.258.375,0,.375-.258Q138.1,354.768,137.705,354.815Z" transform="translate(-126.056 -325.682)"/>
    <path id="Path_4" data-name="Path 4" class="cls-1" d="M119.43,351.908q-.094.258.3.352.352.14.445-.141.07-.257-.3-.375C119.641,351.682,119.492,351.736,119.43,351.908Z" transform="translate(-109.609 -322.846)"/>
    <path id="Path_5" data-name="Path 5" class="cls-1" d="M34.02,1.98A6.5,6.5,0,0,0,29.25,0H6.75A6.5,6.5,0,0,0,1.98,1.98,6.5,6.5,0,0,0,0,6.75v22.5a6.5,6.5,0,0,0,1.98,4.769A6.5,6.5,0,0,0,6.75,36H12a6.339,6.339,0,0,0,.773-.035.907.907,0,0,0,.515-.305,1.092,1.092,0,0,0,.258-.785q0-.07-.012-1.594t-.012-2.414l-.539.094a6.9,6.9,0,0,1-1.3.082,10.009,10.009,0,0,1-1.629-.164,3.651,3.651,0,0,1-1.57-.7,2.975,2.975,0,0,1-1.031-1.441l-.234-.539A5.855,5.855,0,0,0,6.48,27a2.829,2.829,0,0,0-1.019-.891L5.3,25.992a1.723,1.723,0,0,1-.3-.281,1.3,1.3,0,0,1-.211-.328q-.07-.164.117-.27a1.524,1.524,0,0,1,.68-.1l.469.07a3.417,3.417,0,0,1,1.16.562,3.782,3.782,0,0,1,1.137,1.218,4.13,4.13,0,0,0,1.3,1.465,2.758,2.758,0,0,0,1.535.5,6.658,6.658,0,0,0,1.336-.117,4.666,4.666,0,0,0,1.055-.352,3.8,3.8,0,0,1,1.148-2.414,16.05,16.05,0,0,1-2.4-.422,9.575,9.575,0,0,1-2.2-.914,6.308,6.308,0,0,1-1.887-1.57A7.55,7.55,0,0,1,7,20.577a11.705,11.705,0,0,1-.48-3.516,6.836,6.836,0,0,1,1.852-4.828,6.3,6.3,0,0,1,.164-4.781,3.284,3.284,0,0,1,2.016.316,14.135,14.135,0,0,1,1.957.9q.621.375,1,.633a16.922,16.922,0,0,1,9,0l.891-.562A12.608,12.608,0,0,1,25.547,7.71a3.07,3.07,0,0,1,1.9-.258,6.239,6.239,0,0,1,.187,4.781,6.837,6.837,0,0,1,1.852,4.828A11.817,11.817,0,0,1,29,20.589a7.241,7.241,0,0,1-1.242,2.461,6.554,6.554,0,0,1-1.9,1.559,9.561,9.561,0,0,1-2.2.914,16.038,16.038,0,0,1-2.4.423,4.175,4.175,0,0,1,1.218,3.328v5.6a1.508,1.508,0,0,0,.117.644.647.647,0,0,0,.375.34,2.077,2.077,0,0,0,.457.117A5.262,5.262,0,0,0,24,36h5.25A6.762,6.762,0,0,0,36,29.249V6.75A6.5,6.5,0,0,0,34.02,1.98Z"/>
    <path id="Path_6" data-name="Path 6" class="cls-1" d="M85.991,318.563q-.164.117.047.375.235.234.375.07.164-.117-.047-.375Q86.132,318.423,85.991,318.563Z" transform="translate(-78.866 -292.36)"/>
    <path id="Path_7" data-name="Path 7" class="cls-1" d="M77.193,311.234q-.07.164.164.281a.2.2,0,0,0,.3-.047q.07-.164-.164-.282Q77.263,311.117,77.193,311.234Z" transform="translate(-70.841 -285.617)"/>
    <path id="Path_8" data-name="Path 8" class="cls-1" d="M94.465,329.687c-.141.078-.141.219,0,.422s.273.258.4.164q.211-.164,0-.445C94.739,329.624,94.606,329.577,94.465,329.687Z" transform="translate(-86.614 -302.57)"/>
    <path id="Path_9" data-name="Path 9" class="cls-1" d="M104.675,342.165c-.141.125-.11.273.094.446q.281.281.469.07.188-.187-.094-.445Q104.862,341.955,104.675,342.165Z" transform="translate(-96.003 -313.994)"/>
  </g>
</svg>
