<svg xmlns="http://www.w3.org/2000/svg" viewBox="0 0 36 36">
  <defs>
    <style>
      .cls-1 {
        fill: #1b2f33;
      }
    </style>
  </defs>
  <g id="Twitter" transform="translate(16 16)">
    <path id="Twitter-2" data-name="Twitter" class="cls-1" d="M32.623,0H3.377A3.377,3.377,0,0,0,0,3.377V32.63A3.375,3.375,0,0,0,3.377,36H32.623A3.377,3.377,0,0,0,36,32.623V3.377A3.377,3.377,0,0,0,32.623,0ZM27.54,13.111c.007.209.014.425.014.641A14.005,14.005,0,0,1,6,25.553a10.491,10.491,0,0,0,1.174.065,9.854,9.854,0,0,0,6.113-2.11,4.925,4.925,0,0,1-4.6-3.42,4.953,4.953,0,0,0,.929.086,4.812,4.812,0,0,0,1.3-.173A4.929,4.929,0,0,1,6.955,15.17v-.065a4.876,4.876,0,0,0,2.232.612A4.915,4.915,0,0,1,7,11.621a4.973,4.973,0,0,1,.662-2.477,13.983,13.983,0,0,0,10.152,5.148,4.8,4.8,0,0,1-.13-1.123A4.926,4.926,0,0,1,26.2,9.8a9.946,9.946,0,0,0,3.125-1.2,4.888,4.888,0,0,1-2.167,2.722,9.87,9.87,0,0,0,2.83-.778A9.644,9.644,0,0,1,27.54,13.111Z" transform="translate(-16 -16)"/>
  </g>
</svg>
